<?xml version="1.0" encoding="UTF-8" standalone="no"?>
<svg
   xmlns:dc="http://purl.org/dc/elements/1.1/"
   xmlns:cc="http://creativecommons.org/ns#"
   xmlns:rdf="http://www.w3.org/1999/02/22-rdf-syntax-ns#"
   xmlns:svg="http://www.w3.org/2000/svg"
   xmlns="http://www.w3.org/2000/svg"
   xmlns:sodipodi="http://sodipodi.sourceforge.net/DTD/sodipodi-0.dtd"
   xmlns:inkscape="http://www.inkscape.org/namespaces/inkscape"
   width="15.153461mm"
   height="15.153461mm"
   viewBox="0 0 15.153461 15.153461"
   version="1.1"
   id="svg8"
   inkscape:version="1.0.1 (3bc2e81, 2020-09-07)"
   sodipodi:docname="favicon.svg">
  <defs
     id="defs2" />
  <sodipodi:namedview
     id="base"
     pagecolor="#ffffff"
     bordercolor="#666666"
     borderopacity="1.0"
     inkscape:pageopacity="0.0"
     inkscape:pageshadow="2"
     inkscape:zoom="1.4"
     inkscape:cx="278.14152"
     inkscape:cy="126.2081"
     inkscape:document-units="mm"
     inkscape:current-layer="layer1"
     inkscape:document-rotation="0"
     showgrid="false"
     fit-margin-top="0"
     fit-margin-left="0"
     fit-margin-right="0"
     fit-margin-bottom="0"
     inkscape:window-width="2556"
     inkscape:window-height="1393"
     inkscape:window-x="1440"
     inkscape:window-y="872"
     inkscape:window-maximized="0">
    <inkscape:grid
       type="xygrid"
       id="grid833"
       originx="-7.1201294"
       originy="-7.0184405" />
  </sodipodi:namedview>
  <metadata
     id="metadata5">
    <rdf:RDF>
      <cc:Work
         rdf:about="">
        <dc:format>image/svg+xml</dc:format>
        <dc:type
           rdf:resource="http://purl.org/dc/dcmitype/StillImage" />
        <dc:title></dc:title>
      </cc:Work>
    </rdf:RDF>
  </metadata>
  <g
     inkscape:label="Layer 1"
     inkscape:groupmode="layer"
     id="layer1"
     transform="translate(-7.1201301,-7.0184412)">
    <rect
       style="fill:#34305b;fill-opacity:1;stroke-width:0.303068px;stop-color:#000000"
       id="rect851"
       width="15.153461"
       height="15.153461"
       x="7.1201301"
       y="7.0184412"
       rx="4.5460386"
       ry="4.5460386" />
    <rect
       style="fill:#554d93;fill-opacity:1;stroke-width:0.264583px;stop-color:#000000"
       id="rect835"
       width="13.229166"
       height="13.229166"
       x="7.9375"
       y="7.9375"
       rx="3.96875"
       ry="3.96875" />
    <path
       id="path841"
       style="fill:#31ceb5;fill-opacity:1;stroke:none;stroke-width:0.999999px;stroke-linecap:butt;stroke-linejoin:miter;stroke-opacity:1"
       d="m 79.996094,44.914062 -4.695313,1.863282 -2.052734,2.226562 -4.666016,1.363282 -3.572265,5.060546 -6.491616,-0.493038 -4.264244,7.141476 -6.810357,3.787182 -5.693771,-4.726505 -6.662321,5.189758 -4.286676,3.495659 C 32.8019,75.74947 38.380596,80 45,80 h 20 c 8.310002,0 15,-6.689998 15,-15 V 45 c 0,-0.02903 -0.0037,-0.05695 -0.0039,-0.08594 z"
       transform="scale(0.26458333)"
       sodipodi:nodetypes="cccccccccccssssc" />
    <g
       aria-label="T"
       id="text839"
       style="font-style:normal;font-weight:normal;font-size:14.4073px;line-height:1.25;font-family:sans-serif;fill:#ffffff;fill-opacity:1;stroke:none;stroke-width:0.360184">
      <path
         d="m 9.567861,10.738183 9.679905,-1.7103229 v 2.5495859 l -3.482234,0.960928 v 7.953392 H 13.057129 V 12.98233 l -3.489268,0.749395 z"
         style="font-style:normal;font-variant:normal;font-weight:bold;font-stretch:normal;font-family:sans-serif;-inkscape-font-specification:'sans-serif Bold';fill:#ffffff;stroke-width:0.360184"
         id="path853"
         sodipodi:nodetypes="ccccccccc" />
    </g>
    <path
       id="path874"
       style="fill:#27a18c;fill-opacity:1;stroke:none;stroke-width:0.999999px;stroke-linecap:butt;stroke-linejoin:miter;stroke-opacity:1"
       d="m 79.996094,46.625851 -4.695313,4.971836 -1.227447,3.537623 -4.375045,0.963483 -2.103868,7.009704 -3.766481,-0.748988 -3.801893,5.841538 -6.141866,3.272335 -5.859068,0.66253 -4.506778,0.555509 -4.658678,0.975575 -6.054037,0.0198 C 34.361834,76.423704 38.894466,80 45,80 h 20 c 8.310002,0 15,-6.689998 15,-15 V 46.711789 c 0,-0.02903 -0.0037,-0.05695 -0.0039,-0.08594 z"
       transform="scale(0.26458333)"
       sodipodi:nodetypes="ccccccccccccsssscc" />
  </g>
</svg>
